<svg width="441" height="38" viewBox="0 0 441 38" fill="none" xmlns="http://www.w3.org/2000/svg">
<path d="M20.4 3.168L19.584 8.784H7.872V16.752H18.096V22.272H7.872V30.768H20.4V36.432H0V3.168H20.4Z" fill="#141414"/>
<path d="M47.0321 0.816001V36.432H40.3121L39.9281 33.456C38.1361 35.984 35.7201 37.248 32.6801 37.248C29.5121 37.248 27.0961 36.032 25.4321 33.6C23.8001 31.168 22.9841 27.84 22.9841 23.616C22.9841 21.024 23.4161 18.704 24.2801 16.656C25.1441 14.608 26.3601 13.008 27.9281 11.856C29.5281 10.704 31.3521 10.128 33.4001 10.128C35.8321 10.128 37.8481 10.928 39.4481 12.528V0L47.0321 0.816001ZM35.0321 31.68C36.7921 31.68 38.2641 30.72 39.4481 28.8V17.808C38.8401 17.072 38.2161 16.528 37.5761 16.176C36.9681 15.824 36.2641 15.648 35.4641 15.648C34.0561 15.648 32.9361 16.304 32.1041 17.616C31.2721 18.928 30.8561 20.944 30.8561 23.664C30.8561 26.64 31.2081 28.72 31.9121 29.904C32.6481 31.088 33.6881 31.68 35.0321 31.68Z" fill="#141414"/>
<path d="M74.4694 36.432H67.8934L67.5574 33.216C65.7014 35.904 63.1254 37.248 59.8294 37.248C57.4934 37.248 55.7174 36.544 54.5014 35.136C53.3174 33.728 52.7254 31.76 52.7254 29.232V10.944H60.3094V28.272C60.3094 29.52 60.5014 30.4 60.8854 30.912C61.3014 31.392 61.9254 31.632 62.7574 31.632C64.3574 31.632 65.7334 30.64 66.8854 28.656V10.944H74.4694V36.432Z" fill="#141414"/>
<path d="M100.69 29.04C100.69 30 100.818 30.704 101.074 31.152C101.362 31.6 101.81 31.936 102.418 32.16L100.834 37.104C99.2661 36.976 97.9861 36.64 96.9941 36.096C96.0021 35.52 95.2341 34.624 94.6901 33.408C93.0261 35.968 90.4661 37.248 87.0101 37.248C84.4821 37.248 82.4661 36.512 80.9621 35.04C79.4581 33.568 78.7061 31.648 78.7061 29.28C78.7061 26.496 79.7301 24.368 81.7781 22.896C83.8261 21.424 86.7861 20.688 90.6581 20.688H93.2501V19.584C93.2501 18.08 92.9301 17.056 92.2901 16.512C91.6501 15.936 90.5301 15.648 88.9301 15.648C88.0981 15.648 87.0901 15.776 85.9061 16.032C84.7221 16.256 83.5061 16.576 82.2581 16.992L80.5301 12C82.1301 11.392 83.7621 10.928 85.4261 10.608C87.1221 10.288 88.6901 10.128 90.1301 10.128C93.7781 10.128 96.4501 10.88 98.1461 12.384C99.8421 13.888 100.69 16.144 100.69 19.152V29.04ZM89.2181 31.824C90.9461 31.824 92.2901 31.008 93.2501 29.376V24.864H91.3781C89.6501 24.864 88.3541 25.168 87.4901 25.776C86.6581 26.384 86.2421 27.328 86.2421 28.608C86.2421 29.632 86.4981 30.432 87.0101 31.008C87.5541 31.552 88.2901 31.824 89.2181 31.824Z" fill="#141414"/>
<path d="M120.555 10.224C121.483 10.224 122.331 10.336 123.099 10.56L121.899 17.904C120.939 17.68 120.171 17.568 119.595 17.568C118.091 17.568 116.939 18.096 116.139 19.152C115.371 20.176 114.763 21.728 114.315 23.808V36.432H106.731V10.944H113.355L113.979 15.888C114.555 14.128 115.419 12.752 116.571 11.76C117.755 10.736 119.083 10.224 120.555 10.224Z" fill="#141414"/>
<path d="M147.391 0.816001V36.432H140.672L140.288 33.456C138.496 35.984 136.08 37.248 133.04 37.248C129.872 37.248 127.456 36.032 125.792 33.6C124.16 31.168 123.343 27.84 123.343 23.616C123.343 21.024 123.776 18.704 124.64 16.656C125.504 14.608 126.72 13.008 128.288 11.856C129.888 10.704 131.712 10.128 133.76 10.128C136.192 10.128 138.207 10.928 139.807 12.528V0L147.391 0.816001ZM135.391 31.68C137.151 31.68 138.623 30.72 139.807 28.8V17.808C139.199 17.072 138.576 16.528 137.936 16.176C137.328 15.824 136.624 15.648 135.824 15.648C134.416 15.648 133.296 16.304 132.464 17.616C131.632 18.928 131.215 20.944 131.215 23.664C131.215 26.64 131.567 28.72 132.271 29.904C133.007 31.088 134.047 31.68 135.391 31.68Z" fill="#141414"/>
<path d="M164.365 10.128C168.269 10.128 171.325 11.328 173.533 13.728C175.741 16.096 176.845 19.424 176.845 23.712C176.845 26.432 176.333 28.816 175.309 30.864C174.317 32.88 172.877 34.448 170.989 35.568C169.133 36.688 166.925 37.248 164.365 37.248C160.493 37.248 157.437 36.064 155.197 33.696C152.989 31.296 151.885 27.952 151.885 23.664C151.885 20.944 152.381 18.576 153.373 16.56C154.397 14.512 155.837 12.928 157.693 11.808C159.581 10.688 161.805 10.128 164.365 10.128ZM164.365 15.696C162.829 15.696 161.677 16.352 160.909 17.664C160.141 18.944 159.757 20.944 159.757 23.664C159.757 26.448 160.125 28.48 160.861 29.76C161.629 31.04 162.797 31.68 164.365 31.68C165.901 31.68 167.053 31.04 167.821 29.76C168.589 28.448 168.973 26.432 168.973 23.712C168.973 20.928 168.589 18.896 167.821 17.616C167.085 16.336 165.933 15.696 164.365 15.696Z" fill="#141414"/>
<path d="M192.891 36.432V3.168H212.715L211.899 8.784H200.763V17.616H210.459V23.232H200.763V36.432H192.891Z" fill="#141414"/>
<path d="M215.077 28.56C216.261 28.56 217.27 28.992 218.102 29.856C218.966 30.688 219.398 31.696 219.398 32.88C219.398 34.096 218.966 35.136 218.102 36C217.27 36.832 216.261 37.248 215.077 37.248C213.861 37.248 212.822 36.832 211.958 36C211.126 35.136 210.71 34.096 210.71 32.88C210.71 31.696 211.126 30.688 211.958 29.856C212.822 28.992 213.861 28.56 215.077 28.56Z" fill="#141414"/>
<path d="M246.111 3.168C250.495 3.168 253.903 4.08 256.335 5.904C258.767 7.728 259.983 10.432 259.983 14.016C259.983 17.76 258.783 20.592 256.383 22.512C254.015 24.4 250.831 25.344 246.831 25.344H243.231V36.432H235.359V3.168H246.111ZM246.159 19.68C248.015 19.68 249.423 19.248 250.383 18.384C251.375 17.488 251.871 16.032 251.871 14.016C251.871 10.528 249.919 8.784 246.015 8.784H243.231V19.68H246.159Z" fill="#141414"/>
<path d="M276.883 10.224C277.811 10.224 278.659 10.336 279.427 10.56L278.227 17.904C277.267 17.68 276.499 17.568 275.923 17.568C274.419 17.568 273.267 18.096 272.467 19.152C271.699 20.176 271.091 21.728 270.643 23.808V36.432H263.059V10.944H269.683L270.307 15.888C270.883 14.128 271.747 12.752 272.899 11.76C274.083 10.736 275.411 10.224 276.883 10.224Z" fill="#141414"/>
<path d="M303.096 23.184C303.096 24.24 303.048 25.152 302.952 25.92H287.16C287.416 28.064 288.024 29.568 288.984 30.432C289.944 31.296 291.272 31.728 292.968 31.728C293.992 31.728 294.984 31.552 295.944 31.2C296.904 30.816 297.944 30.24 299.064 29.472L302.184 33.696C299.208 36.064 295.896 37.248 292.248 37.248C288.12 37.248 284.952 36.032 282.744 33.6C280.536 31.168 279.432 27.904 279.432 23.808C279.432 21.216 279.896 18.896 280.824 16.848C281.752 14.768 283.112 13.136 284.904 11.952C286.696 10.736 288.84 10.128 291.336 10.128C295.016 10.128 297.896 11.28 299.976 13.584C302.056 15.888 303.096 19.088 303.096 23.184ZM295.656 21.024C295.592 17.12 294.216 15.168 291.528 15.168C290.216 15.168 289.192 15.648 288.456 16.608C287.752 17.568 287.32 19.152 287.16 21.36H295.656V21.024Z" fill="#141414"/>
<path d="M316.332 10.128C318.156 10.128 319.868 10.4 321.468 10.944C323.068 11.488 324.476 12.256 325.692 13.248L322.908 17.52C320.828 16.208 318.732 15.552 316.62 15.552C315.628 15.552 314.86 15.728 314.316 16.08C313.804 16.4 313.548 16.864 313.548 17.472C313.548 17.952 313.66 18.352 313.884 18.672C314.14 18.96 314.636 19.264 315.372 19.584C316.108 19.904 317.244 20.288 318.78 20.736C321.436 21.504 323.404 22.512 324.684 23.76C325.996 24.976 326.652 26.672 326.652 28.848C326.652 30.576 326.156 32.08 325.164 33.36C324.172 34.608 322.812 35.568 321.084 36.24C319.356 36.912 317.436 37.248 315.324 37.248C313.18 37.248 311.18 36.912 309.324 36.24C307.5 35.568 305.948 34.64 304.668 33.456L308.364 29.328C310.508 30.992 312.764 31.824 315.132 31.824C316.284 31.824 317.18 31.616 317.82 31.2C318.492 30.784 318.828 30.192 318.828 29.424C318.828 28.816 318.7 28.336 318.444 27.984C318.188 27.632 317.692 27.312 316.956 27.024C316.22 26.704 315.052 26.32 313.452 25.872C310.924 25.136 309.036 24.112 307.788 22.8C306.54 21.488 305.916 19.856 305.916 17.904C305.916 16.432 306.332 15.12 307.164 13.968C308.028 12.784 309.244 11.856 310.812 11.184C312.412 10.48 314.252 10.128 316.332 10.128Z" fill="#141414"/>
<path d="M339.207 10.128C341.031 10.128 342.743 10.4 344.343 10.944C345.943 11.488 347.351 12.256 348.567 13.248L345.783 17.52C343.703 16.208 341.607 15.552 339.495 15.552C338.503 15.552 337.735 15.728 337.191 16.08C336.679 16.4 336.423 16.864 336.423 17.472C336.423 17.952 336.535 18.352 336.759 18.672C337.015 18.96 337.511 19.264 338.247 19.584C338.983 19.904 340.119 20.288 341.655 20.736C344.311 21.504 346.279 22.512 347.559 23.76C348.871 24.976 349.527 26.672 349.527 28.848C349.527 30.576 349.031 32.08 348.039 33.36C347.047 34.608 345.687 35.568 343.959 36.24C342.231 36.912 340.311 37.248 338.199 37.248C336.055 37.248 334.055 36.912 332.199 36.24C330.375 35.568 328.823 34.64 327.543 33.456L331.239 29.328C333.383 30.992 335.639 31.824 338.007 31.824C339.159 31.824 340.055 31.616 340.695 31.2C341.367 30.784 341.703 30.192 341.703 29.424C341.703 28.816 341.575 28.336 341.319 27.984C341.063 27.632 340.567 27.312 339.831 27.024C339.095 26.704 337.927 26.32 336.327 25.872C333.799 25.136 331.911 24.112 330.663 22.8C329.415 21.488 328.791 19.856 328.791 17.904C328.791 16.432 329.207 15.12 330.039 13.968C330.903 12.784 332.119 11.856 333.687 11.184C335.287 10.48 337.127 10.128 339.207 10.128Z" fill="#141414"/>
<path d="M374.938 36.432H368.362L368.026 33.216C366.17 35.904 363.594 37.248 360.298 37.248C357.962 37.248 356.186 36.544 354.97 35.136C353.786 33.728 353.194 31.76 353.194 29.232V10.944H360.778V28.272C360.778 29.52 360.97 30.4 361.354 30.912C361.77 31.392 362.394 31.632 363.226 31.632C364.826 31.632 366.202 30.64 367.354 28.656V10.944H374.938V36.432Z" fill="#141414"/>
<path d="M396.887 35.232C395.959 35.872 394.871 36.368 393.623 36.72C392.407 37.072 391.191 37.248 389.975 37.248C384.407 37.216 381.623 34.144 381.623 28.032V16.224H378.023V10.944H381.623V5.424L389.207 4.56V10.944H395.063L394.247 16.224H389.207V27.936C389.207 29.12 389.399 29.968 389.783 30.48C390.167 30.992 390.775 31.248 391.607 31.248C392.471 31.248 393.383 30.976 394.343 30.432L396.887 35.232Z" fill="#141414"/>
<path d="M415.402 35.232C414.474 35.872 413.386 36.368 412.138 36.72C410.922 37.072 409.707 37.248 408.491 37.248C402.923 37.216 400.138 34.144 400.138 28.032V16.224H396.539V10.944H400.138V5.424L407.723 4.56V10.944H413.578L412.763 16.224H407.723V27.936C407.723 29.12 407.914 29.968 408.298 30.48C408.682 30.992 409.29 31.248 410.122 31.248C410.986 31.248 411.898 30.976 412.858 30.432L415.402 35.232Z" fill="#141414"/>
<path d="M428.13 10.128C432.034 10.128 435.09 11.328 437.298 13.728C439.506 16.096 440.61 19.424 440.61 23.712C440.61 26.432 440.098 28.816 439.074 30.864C438.082 32.88 436.642 34.448 434.754 35.568C432.898 36.688 430.69 37.248 428.13 37.248C424.258 37.248 421.202 36.064 418.962 33.696C416.754 31.296 415.65 27.952 415.65 23.664C415.65 20.944 416.146 18.576 417.138 16.56C418.162 14.512 419.602 12.928 421.458 11.808C423.346 10.688 425.57 10.128 428.13 10.128ZM428.13 15.696C426.594 15.696 425.442 16.352 424.674 17.664C423.906 18.944 423.522 20.944 423.522 23.664C423.522 26.448 423.89 28.48 424.626 29.76C425.394 31.04 426.562 31.68 428.13 31.68C429.666 31.68 430.818 31.04 431.586 29.76C432.354 28.448 432.738 26.432 432.738 23.712C432.738 20.928 432.354 18.896 431.586 17.616C430.85 16.336 429.698 15.696 428.13 15.696Z" fill="#141414"/>
</svg>
